{
	"asset":{
		"version":"2.0",
		"generator":"Created using the official Cinema 4D glTF Exporter 1.000x284978"
	},
	"scenes":[{
		"nodes":[0]
	}],
	"nodes":[{
		"name":"circ",
		"mesh":0
	}],
	"meshes":[{
		"name":"circ",
		"primitives":[{
			"attributes":{
				"POSITION":1,
				"NORMAL":2,
				"TEXCOORD_0":3
			},
			"indices":0
		}]
	}],
	"accessors":[{
		"min":[0],
		"type":"SCALAR",
		"bufferView":0,
		"componentType":5123,
		"count":216000,
		"byteOffset":0,
		"max":[39985]
	},
	{
		"min":[-153.57534790039063,
		-176.82347106933595,
		-43.009620666503909],
		"type":"VEC3",
		"bufferView":1,
		"componentType":5126,
		"count":39986,
		"byteOffset":0,
		"max":[184.2146453857422,
		177.69784545898438,
		43.009620666503909]
	},
	{
		"min":[-0.9999634027481079,
		-0.9998363256454468,
		-1.0],
		"type":"VEC3",
		"bufferView":1,
		"componentType":5126,
		"count":39986,
		"byteOffset":12,
		"max":[0.9999369978904724,
		0.9999381303787231,
		1.0]
	},
	{
		"min":[0.0,
		0.0],
		"type":"VEC2",
		"bufferView":1,
		"componentType":5126,
		"count":39986,
		"byteOffset":24,
		"max":[1.0,
		0.9979350566864014]
	}],
	"bufferViews":[{
		"buffer":0,
		"byteOffset":0,
		"byteLength":432000,
		"target":34963
	},
	{
		"buffer":0,
		"byteOffset":432000,
		"byteLength":1279552,
		"target":34962,
		"byteStride":32
	}],
	"buffers":[{
		"uri":"data:application/octet-stream;base64,",
		"byteLength":1711552
	}]
}